<svg width="129" height="25" viewBox="0 0 129 25" fill="none" xmlns="http://www.w3.org/2000/svg">
<path fill-rule="evenodd" clip-rule="evenodd" d="M0 2.54471V5.06352H15.2535H30.5071L31.3112 5.60759C32.8014 6.61607 32.7598 8.33293 31.2175 9.47983C30.5525 9.97424 30.3341 9.98215 15.2717 10.0496L0 10.1179V12.5084V14.8989H14.7813C22.9109 14.8989 29.8969 14.966 30.3057 15.0481C32.7481 15.5386 33.1767 18.4681 30.9543 19.4819C30.0403 19.8988 29.063 19.9262 14.9903 19.9312L0 19.9365V22.4553V24.9741H14.7672C24.4283 24.9741 30.0245 24.8834 30.9519 24.7119C33.0252 24.3283 34.6527 23.4602 36.0194 22.0091C37.2667 20.6847 37.9833 19.0096 37.9833 17.4177C37.9833 16.2537 37.341 14.3534 36.6014 13.329L35.9315 12.4016L36.7012 11.2531C39.4009 7.22466 37.2918 2.09277 32.2846 0.506881C30.8308 0.0462996 30.1139 0.0259081 15.3832 0.0259081H0V2.54471ZM43.5131 5.84339C43.6015 11.6004 43.6092 11.6748 44.2513 12.9927C45.4379 15.4283 47.0078 15.8459 55.0042 15.8536L59.9611 15.8584V13.3538V10.8493L55.3076 10.775L50.6542 10.7009L49.9923 10.0361L49.3306 9.37164L49.2527 4.69866L49.1746 0.0259081H46.2991H43.4235L43.5131 5.84339ZM79.7889 4.2316C79.7889 8.78368 79.5868 9.79121 78.555 10.3818C78.13 10.6248 76.1341 10.7186 70.1736 10.7757L62.35 10.8505V17.9123V24.9741H65.6944H69.0389L69.0396 20.3563L69.0403 15.7385L74.7132 15.7306C81.033 15.7214 82.312 15.5307 83.6892 14.3908C85.0886 13.2326 85.2833 12.1608 85.2833 5.61958V0.0259081H82.5361H79.7889V4.2316ZM91.0167 2.53176V5.06352H103.156C110.814 5.06352 115.81 5.159 116.689 5.32212C119.6 5.86258 121.687 7.26112 122.844 9.44793C123.278 10.2669 123.381 10.8513 123.383 12.5C123.386 14.3399 123.314 14.6679 122.645 15.8584C121.77 17.4158 120.461 18.4952 118.556 19.2288C116.797 19.9067 112.16 20.1368 99.7958 20.1598L91.0167 20.1764V22.5882V25L104.335 24.9115C116.18 24.833 117.811 24.7764 119.086 24.4008C125.386 22.5445 129 18.1999 129 12.4818C129 7.89011 126.461 3.90487 122.208 1.8205C118.796 0.148011 119.09 0.176556 104.335 0.0837201L91.0167 0V2.53176Z" fill="white"/>
</svg>
