<svg width="14" height="14" viewBox="0 0 14 14" fill="none" xmlns="http://www.w3.org/2000/svg">
<path fill-rule="evenodd" clip-rule="evenodd" d="M3.79491 0.0293676C2.37233 0.139902 1.26308 0.787084 0.595647 1.8959C0.419178 2.18902 0.160052 2.91233 0.0819131 3.32994C0.00787715 3.72534 -0.0320451 9.07979 0.0321255 10.0083C0.0677144 10.5237 0.115151 10.8418 0.200804 11.1387C0.577668 12.446 1.37874 13.307 2.60992 13.728C3.39694 13.9972 3.44327 14 6.99884 14C9.89293 13.9999 10.2953 13.9911 10.6727 13.9196C12.1795 13.6341 13.2034 12.8077 13.6835 11.4897C13.9579 10.736 13.9673 10.6159 13.9923 7.53248C14.0183 4.32656 13.9844 3.51577 13.7969 2.86554C13.4982 1.82943 12.9604 1.10922 12.095 0.586246C11.8029 0.40975 11.0816 0.150157 10.6638 0.0711704C10.3221 0.00659547 4.5409 -0.0286021 3.79491 0.0293676ZM10.2286 1.34119C11.3358 1.48891 11.9557 1.88015 12.3604 2.68655C12.6748 3.31327 12.7152 3.80113 12.7136 6.95593C12.712 10.272 12.6682 10.7312 12.2847 11.4571C12.023 11.9523 11.5968 12.3006 11.0105 12.4985C10.4127 12.7003 9.92861 12.728 6.99884 12.728C3.66639 12.728 3.22959 12.6875 2.59632 12.3197C1.86546 11.8952 1.48943 11.2938 1.35366 10.3323C1.2634 9.6933 1.26114 4.45843 1.3508 3.76584C1.49376 2.66174 1.8863 2.03572 2.68931 1.63127C3.31571 1.31574 3.68976 1.28493 6.95274 1.28026C9.10619 1.27717 9.85273 1.29103 10.2286 1.34119ZM10.7099 2.36372C10.6845 2.37019 10.5866 2.38838 10.4922 2.40418C9.8914 2.50479 9.64698 3.38154 10.0816 3.87758C10.282 4.10636 10.7703 4.20909 11.0872 4.08914C11.2506 4.02729 11.457 3.83347 11.5512 3.65328C11.6456 3.47276 11.6447 3.04707 11.5495 2.86332C11.4785 2.72636 11.1808 2.43042 11.1116 2.42811C11.0935 2.42751 11.006 2.41014 10.9173 2.38949C10.8286 2.36889 10.7352 2.3573 10.7099 2.36372ZM6.38862 3.48999C6.04734 3.55249 5.71676 3.67162 5.3162 3.87643C4.82478 4.1277 4.14698 4.79493 3.90057 5.26996C3.39786 6.23909 3.32373 7.214 3.6751 8.23542C3.86351 8.7832 4.06169 9.0936 4.51416 9.54983C4.84691 9.88531 4.98032 9.98347 5.34395 10.1603C5.97911 10.4691 6.26157 10.5327 6.99884 10.5327C7.73256 10.5327 8.01907 10.4688 8.63943 10.1673C9.87638 9.56586 10.6357 8.17278 10.5279 6.70266C10.4935 6.23378 10.3507 5.75889 10.0971 5.26996C9.85139 4.79632 9.17336 4.12835 8.68147 3.87532C8.11288 3.58284 7.75123 3.48727 7.13714 3.46727C6.84556 3.45775 6.50875 3.46796 6.38862 3.48999ZM7.59209 4.80588C8.61555 5.07882 9.2573 5.92578 9.2638 7.01214C9.26929 7.92234 8.80147 8.67169 7.9809 9.06727C7.33393 9.37915 6.66729 9.37961 6.01678 9.06861C4.77029 8.47261 4.3524 6.97085 5.09211 5.74554C5.35848 5.30428 5.83316 4.96016 6.38516 4.80814C6.68352 4.72592 7.28816 4.72481 7.59209 4.80588Z" fill="white"/>
</svg>
