<svg width="11" height="13" viewBox="0 0 11 13" fill="none" xmlns="http://www.w3.org/2000/svg">
<path d="M5.5 11.1329C6.89792 9.93514 7.9349 8.84698 8.61094 7.86844C9.28698 6.8899 9.625 6.02097 9.625 5.26167C9.625 4.09597 9.22682 3.14149 8.43047 2.39823C7.63411 1.65497 6.65729 1.28333 5.5 1.28333C4.34271 1.28333 3.36589 1.65497 2.56953 2.39823C1.77318 3.14149 1.375 4.09597 1.375 5.26167C1.375 6.02097 1.71302 6.8899 2.38906 7.86844C3.0651 8.84698 4.10208 9.93514 5.5 11.1329ZM5.5 12.8333C3.65521 11.3682 2.27734 10.0073 1.36641 8.75073C0.455469 7.49413 0 6.33111 0 5.26167C0 3.6575 0.552865 2.37951 1.65859 1.42771C2.76432 0.475903 4.04479 0 5.5 0C6.95521 0 8.23568 0.475903 9.34141 1.42771C10.4471 2.37951 11 3.6575 11 5.26167C11 6.33111 10.5445 7.49413 9.63359 8.75073C8.72266 10.0073 7.34479 11.3682 5.5 12.8333Z" fill="white"/>
<circle cx="5.49967" cy="5.49998" r="0.916667" fill="white"/>
</svg>
