<svg width="14" height="14" viewBox="0 0 14 14" fill="none" xmlns="http://www.w3.org/2000/svg">
<path fill-rule="evenodd" clip-rule="evenodd" d="M2.65163 0.190781C1.96277 0.633324 0.559591 2.28019 0.111596 3.172C-0.00412532 3.40231 -0.0139283 3.45955 0.0115593 3.75559C0.0733179 4.47349 0.476919 5.66698 0.982938 6.62821C1.6465 7.88875 2.59086 9.14052 3.74891 10.2946C4.60583 11.1486 5.24489 11.6756 6.18046 12.2996C7.59386 13.2423 9.1656 13.8957 10.2431 13.9884C10.5398 14.0139 10.5958 14.0043 10.8266 13.8874C11.7406 13.4246 13.3595 12.0454 13.8074 11.348C14.019 11.0187 14.0494 10.8209 13.9321 10.5399C13.836 10.31 13.6643 10.1443 13.1592 9.79394C11.8419 8.88014 10.4891 8.16887 10.0686 8.16887C9.81997 8.16887 9.53265 8.34568 9.24856 8.67346C9.10156 8.84307 8.89686 9.07371 8.79365 9.18594L8.60595 9.39001L8.28927 9.27077C7.54107 8.98911 6.81873 8.50562 6.15619 7.843C5.4943 7.18098 5.01284 6.46182 4.72739 5.70872L4.607 5.39102L4.9269 5.1109C5.77658 4.36695 5.89263 4.17908 5.78891 3.71548C5.67337 3.19908 4.79391 1.63811 4.0289 0.591679C3.80834 0.289944 3.69593 0.179857 3.5276 0.100723C3.19719 -0.0546037 3.00249 -0.0345751 2.65163 0.190781ZM3.51089 1.51869C3.9221 2.11903 4.2652 2.70107 4.58968 3.34881C4.73289 3.63467 4.85006 3.87734 4.85006 3.88818C4.85006 3.89896 4.69102 4.03939 4.49664 4.20018C4.30227 4.36102 4.01868 4.61985 3.86645 4.77545C3.54081 5.10828 3.53133 5.16538 3.70937 5.71913C4.36164 7.74776 6.25142 9.63777 8.27979 10.2901C8.83347 10.4682 8.89056 10.4587 9.22335 10.133C9.37893 9.98078 9.63773 9.69716 9.79855 9.50276C9.95932 9.30835 10.0997 9.14929 10.1105 9.14929C10.162 9.14929 11.2172 9.69833 11.5925 9.92037C12.1796 10.2677 12.9399 10.794 12.9635 10.8695C13.0069 11.0077 11.577 12.2829 10.7612 12.8334C10.434 13.0543 10.4192 13.0592 10.1934 13.0218C8.39098 12.7232 6.26729 11.4628 4.38148 9.57269C2.7239 7.9113 1.54105 6.02563 1.09945 4.34057C0.918472 3.64989 0.92118 3.6081 1.17172 3.23129C1.68418 2.46055 2.99352 0.991971 3.13011 1.03478C3.16466 1.04557 3.33597 1.26336 3.51089 1.51869Z" fill="white"/>
</svg>
