<svg width="61" height="55" viewBox="0 0 61 55" fill="none" xmlns="http://www.w3.org/2000/svg">
<path fill-rule="evenodd" clip-rule="evenodd" d="M29.1964 0.656147C28.6202 0.97481 27.5059 1.58471 26.7202 2.01137C16.8135 7.3913 1.93826 15.4956 0.645896 16.2173L0 16.5779L2.16969 17.7801C4.46318 19.0506 4.67994 19.1694 7.91647 20.9292L9.96959 22.0454L8.18752 23.01C7.20734 23.5404 4.97784 24.7459 3.2331 25.6888C1.48817 26.6316 0.0624747 27.4459 0.0647604 27.4983C0.0668556 27.5507 2.28454 28.7916 4.99289 30.2558L9.91721 32.918L9.41398 33.2211C9.13741 33.3875 8.18237 33.9169 7.29191 34.3971C3.56262 36.4085 0.330472 38.1989 0.201521 38.325C0.125712 38.3993 1.62569 39.3096 3.53481 40.3478C5.44412 41.3861 9.74902 43.7286 13.1014 45.5535C16.4537 47.3786 19.6251 49.1049 20.1489 49.39C20.6727 49.6752 23.1708 51.0376 25.7001 52.4176C28.2294 53.7974 30.4011 54.9265 30.5265 54.9265C30.9249 54.9265 61.0048 38.5082 60.9044 38.3458C60.8632 38.2793 58.645 37.0372 55.9749 35.586L51.1203 32.9472L52.3963 32.2447C54.8624 30.887 56.93 29.7645 58.9543 28.6842C60.0785 28.0844 60.999 27.5507 61 27.4983C61.0009 27.4459 60.2097 26.9796 59.2417 26.4619C58.2737 25.9444 56.0479 24.7357 54.2955 23.776L51.1093 22.0311L55.7515 19.5148C58.3048 18.1308 60.5371 16.8937 60.7122 16.7657C60.9842 16.5668 60.064 16.0083 54.3991 12.9339C50.7517 10.9543 47.1247 8.97795 46.339 8.54176C45.5533 8.10577 44.3533 7.4473 43.6724 7.07873C42.9915 6.71017 39.8134 4.98238 36.6102 3.23935C33.407 1.49614 30.6642 0.0715835 30.515 0.0734882C30.3659 0.075393 29.7726 0.337675 29.1964 0.656147ZM32.2196 5.04562C33.0186 5.47742 36.0725 7.13721 39.0058 8.73376C41.9391 10.3303 46.3533 12.7309 48.8152 14.0684C51.2771 15.4059 53.3165 16.5213 53.3471 16.547C53.4096 16.5998 51.4359 17.6889 41.9581 22.8317C38.3439 24.7928 34.2961 26.9954 32.963 27.7263L30.5392 29.0552L25.725 26.4412C23.0772 25.0033 20.0965 23.3783 19.1013 22.83C16.7306 21.5237 16.2859 21.2812 11.6159 18.7504L7.65438 16.6034L10.854 14.844C12.6139 13.8764 17.1823 11.3874 21.006 9.31299C24.8298 7.23835 28.4726 5.25438 29.1012 4.90371C29.7297 4.55324 30.3615 4.26505 30.5053 4.26334C30.6491 4.26182 31.4206 4.61381 32.2196 5.04562ZM18.5299 26.701C20.9917 28.0421 23.6917 29.5097 24.5298 29.9624C25.3679 30.4152 26.3107 30.9342 26.625 31.1158C26.9393 31.2975 27.9509 31.8487 28.8728 32.3409L30.5493 33.2357L38.7879 28.748C43.3193 26.2798 47.1339 24.2602 47.2649 24.2602C47.5733 24.2602 53.1961 27.3166 53.1961 27.4842C53.1961 27.5541 49.8318 29.4447 45.72 31.6857C41.6081 33.9264 36.5432 36.6867 34.4645 37.8195C32.3859 38.9522 30.6128 39.8791 30.5244 39.8791C30.4358 39.8791 28.6223 38.9261 26.4941 37.7616C24.3662 36.5968 22.0679 35.3435 21.387 34.9763C20.706 34.6091 19.6346 34.0245 19.006 33.6774C18.3775 33.3304 17.2575 32.7196 16.5171 32.3199C10.2406 28.9324 7.86409 27.5912 7.90771 27.4617C7.98085 27.2438 13.4261 24.2776 13.768 24.2694C13.9252 24.2656 16.068 25.3598 18.5299 26.701ZM18.376 37.5256C20.8178 38.8503 24.1012 40.6387 25.6726 41.5C27.244 42.3611 28.9863 43.2964 29.5444 43.5783L30.559 44.0908L31.9253 43.3895C32.6767 43.0038 33.3773 42.6261 33.4821 42.5501C33.5868 42.4741 34.4439 42.0029 35.3868 41.5031C36.3296 41.0033 37.3582 40.4429 37.6725 40.2579C39.197 39.3604 47.1451 35.1172 47.3021 35.1172C47.4007 35.1172 48.4457 35.653 49.6243 36.3081C50.8032 36.9629 52.0891 37.6681 52.4818 37.8751C52.8748 38.0822 53.1961 38.309 53.1961 38.3795C53.1961 38.5193 52.4961 38.9077 39.5517 45.9533C34.7186 48.5837 30.6609 50.7361 30.5347 50.7361C30.4084 50.7361 28.8341 49.9329 27.0364 48.9512C25.2387 47.9695 21.2822 45.8171 18.2442 44.1682C9.24046 39.2812 7.86314 38.5138 7.86543 38.3837C7.86771 38.2555 13.5714 35.1191 13.8046 35.118C13.8772 35.1176 15.9343 36.201 18.376 37.5256Z" fill="white"/>
</svg>
