<svg width="46" height="57" viewBox="0 0 46 57" fill="none" xmlns="http://www.w3.org/2000/svg">
<path fill-rule="evenodd" clip-rule="evenodd" d="M16.199 0.88397C16.1554 0.955592 15.6144 2.10657 14.9966 3.4419C14.379 4.77722 13.563 6.53309 13.1835 7.34382C12.804 8.15456 11.4239 11.12 10.1163 13.9337C8.80895 16.7475 7.44693 19.6739 7.0896 20.4369C6.73245 21.2 5.38945 24.0874 4.10509 26.8534C2.82072 29.6195 1.37171 32.7303 0.884838 33.7664C0.398142 34.8024 0 35.7195 0 35.8041C0 35.8915 3.69328 35.9579 8.56128 35.9579C13.27 35.9579 17.1217 36.0166 17.1205 36.088C17.1167 36.3348 15.7507 40.9854 13.848 47.2302C13.5718 48.1363 12.9453 50.2433 12.4559 51.9125C11.9664 53.5816 11.493 55.1266 11.404 55.3456C11.0347 56.2542 11.0155 56.2481 14.2256 56.2457L17.209 56.2433L18.1544 55.0751C19.1873 53.7988 27.408 43.747 30.6039 39.8529C31.7028 38.5136 33.7695 35.9881 35.1964 34.2404C36.6232 32.4929 39.6378 28.8094 41.8954 26.055L46 21.047L37.2851 21.0021L28.5703 20.9572L31.065 15.4078C32.4372 12.3556 33.6342 9.70232 33.7252 9.51156C33.8164 9.3208 34.7415 7.27238 35.7811 4.95931L37.6715 0.753906H26.9748C21.0917 0.753906 16.2426 0.812348 16.199 0.88397ZM32.0576 5.04602C31.816 5.59437 31.4597 6.39436 31.2656 6.82357C30.6245 8.24179 30.1542 9.28698 27.7553 14.6274C26.4485 17.5365 24.9612 20.845 24.4505 21.9797C23.9398 23.1144 23.5219 24.1086 23.5219 24.189C23.5219 24.2695 26.981 24.3557 31.2089 24.3805L38.8957 24.4256L37.0461 26.6887C14.7901 53.9188 15.8622 52.6141 15.796 52.5479C15.7688 52.5205 16.214 50.942 16.7856 49.0403C18.4863 43.3829 18.5979 43.0119 20.1392 37.8912C20.9533 35.1869 21.6194 32.8661 21.6194 32.7336C21.6194 32.5324 20.2755 32.4856 13.4077 32.4479L5.19592 32.4029L6.2928 30.0617C6.89607 28.7741 7.58754 27.2913 7.82968 26.7667C8.07164 26.2421 8.6353 25.0325 9.08222 24.0787C9.52896 23.1249 10.1104 21.8763 10.3744 21.304C10.8102 20.3584 12.3644 17.0185 13.9547 13.6091C14.2942 12.8816 14.8252 11.74 15.1348 11.0723C15.4444 10.4047 16.0435 9.11703 16.466 8.21092C16.8885 7.3048 17.493 5.99757 17.8094 5.30615L18.3844 4.04886H25.4405H32.4965L32.0576 5.04602Z" fill="white"/>
</svg>
