<svg width="37" height="38" viewBox="0 0 37 38" fill="none" xmlns="http://www.w3.org/2000/svg">
<path fill-rule="evenodd" clip-rule="evenodd" d="M12.4007 1.0692C13.198 1.22598 13.6703 1.5322 16.2564 3.56895C17.6123 4.63679 19.6648 6.25255 20.8176 7.15929C24.1998 9.81978 24.3626 9.99745 24.6382 11.3299C24.7459 11.8504 24.7372 12.0999 24.5921 12.6519C24.3699 13.4973 23.978 14.0617 22.8388 15.1778L21.9474 16.051L29.0573 23.1167L36.1673 30.1824L36.6184 32.8006C36.8664 34.2404 37.0354 35.4533 36.9937 35.4957C36.952 35.5381 35.2665 35.905 33.2481 36.3108L29.5784 37.0487L22.3877 29.9042L15.197 22.7597L14.1557 23.7992C13.0488 24.9043 12.3006 25.361 11.3845 25.4907C10.7222 25.5845 9.67135 25.3235 9.04024 24.9085C8.63206 24.64 4.67398 19.7994 1.2599 15.3933C-0.0240402 13.7365 -0.255661 12.8425 0.245613 11.4801C0.476997 10.8511 0.80864 10.4908 5.08814 6.2179C7.61495 3.69494 9.86881 1.53441 10.0969 1.41659C10.4133 1.25305 11.8608 0.88804 11.905 0.960598C11.9092 0.967597 12.1323 1.01647 12.4007 1.0692ZM11.0558 2.98102C10.4937 3.27662 2.01616 11.8217 1.92741 12.1819C1.77925 12.7838 1.96122 13.3078 2.6036 14.1281C4.41019 16.4353 9.3808 22.6459 9.72183 23.0219C10.1655 23.5114 10.7157 23.7101 11.3598 23.6136C11.7471 23.5555 12.3892 22.9602 17.1554 18.24C20.6884 14.7414 22.5841 12.7805 22.7168 12.4882C23.1538 11.5251 22.8362 11.0444 20.6408 9.34582C20.0196 8.8651 18.1828 7.42199 16.5591 6.13881C12.746 3.1252 12.2991 2.81421 11.782 2.81421C11.5569 2.81421 11.2302 2.88922 11.0558 2.98102ZM12.1227 8.15503C12.4268 8.46206 12.6758 8.76431 12.6758 8.82695C12.6758 8.97942 8.06962 13.5463 7.91583 13.5463C7.76322 13.5463 6.68871 12.4692 6.68871 12.3163C6.68871 12.1638 11.2949 7.59697 11.4487 7.59697C11.515 7.59697 11.8184 7.84812 12.1227 8.15503ZM18.545 19.4378L16.4926 21.4798L23.3237 28.2676L30.1546 35.0555L32.4587 34.5972C33.726 34.3452 34.8056 34.1119 34.8578 34.0789C34.9102 34.0459 34.8403 33.3704 34.7027 32.5779L34.4526 31.137L27.585 24.2817C23.8078 20.5114 20.6904 17.4195 20.6574 17.4111C20.6244 17.4027 19.6739 18.3147 18.545 19.4378Z" fill="white"/>
</svg>
