<svg width="45" height="55" viewBox="0 0 45 55" fill="none" xmlns="http://www.w3.org/2000/svg">
<path fill-rule="evenodd" clip-rule="evenodd" d="M20.0295 1.46906C18.8107 2.12228 17.008 3.08199 16.0236 3.60173C15.0391 4.12147 11.0312 6.24017 7.11685 8.30993L0 12.0731L0.00289759 18.907C0.00596593 25.6967 0.120347 27.8865 0.59202 30.1727C2.42518 39.0588 7.50773 46.0443 15.5974 50.7956C16.535 51.3462 18.4438 52.4777 19.8394 53.3101C21.2643 54.16 22.4858 54.7817 22.6256 54.728C22.9398 54.6075 28.1154 51.5523 30.5982 50.0219C38.0971 45.3992 43.0076 37.923 44.5873 28.7238C44.9787 26.4442 45.1676 12.3627 44.8104 12.0808C44.5624 11.8847 43.3097 11.2066 39.9737 9.46261C38.8486 8.87434 37.698 8.26033 37.4167 8.09788C37.1355 7.93543 35.8314 7.24368 34.5189 6.56081C33.2063 5.87776 31.7488 5.11118 31.2801 4.85719C28.2267 3.20267 22.5286 0.258428 22.3999 0.268826C22.315 0.275815 21.2483 0.815844 20.0295 1.46906ZM23.1856 4.3216C23.5124 4.49479 26.8864 6.27528 30.6834 8.27806C34.4805 10.281 38.4694 12.3857 39.5475 12.9554L41.5079 13.9911L41.5554 20.1217C41.6137 27.6378 41.3882 29.5306 39.9599 33.5089C38.2986 38.1361 34.8407 42.8738 31.0273 45.7473C29.946 46.5621 26.4457 48.7243 23.183 50.5927L22.416 51.032L18.6426 48.7776C16.5672 47.5379 14.434 46.1878 13.9023 45.7775C9.2427 42.1826 5.85031 37.12 4.29159 31.435C3.4391 28.3256 3.35063 27.311 3.33699 20.4875L3.32404 14.0411L6.22192 12.51C11.1717 9.89439 13.7446 8.53256 18.0691 6.23897C20.3661 5.02084 22.3234 4.02005 22.4185 4.01528C22.5136 4.0105 22.8588 4.14841 23.1856 4.3216ZM21.5476 8.50085C20.9568 8.83871 13.6366 12.7123 8.48295 15.414L6.99378 16.1947L6.99276 21.3086C6.99207 24.1213 7.07049 26.9211 7.1668 27.5306C8.01025 32.8625 10.2532 37.2985 13.976 40.9972C15.5961 42.6069 16.9074 43.5502 20.2294 45.4957L22.4751 46.8108L25.2032 45.1834C28.308 43.3313 29.9065 42.1149 31.6305 40.292C34.3716 37.3937 36.2327 33.9731 37.2524 29.959C37.8731 27.5159 38.0338 25.4533 37.9788 20.6413L37.9281 16.2239L37.4167 15.9416C36.9776 15.6992 30.88 12.4795 24.446 9.09287C23.4062 8.54551 22.4857 8.09856 22.4004 8.09975C22.3152 8.10095 21.9315 8.28147 21.5476 8.50085ZM20.7966 19.1778V25.6555H15.5122H10.2278V21.944V18.2326L13.1683 16.679C14.7857 15.8246 17.0293 14.6452 18.1544 14.0583C19.2794 13.4712 20.2729 12.9254 20.3619 12.8455C20.4509 12.7657 20.5852 12.7002 20.6602 12.7002C20.7352 12.7002 20.7966 15.6151 20.7966 19.1778ZM26.145 13.7104C29.3572 15.4217 31.8985 16.7603 33.3682 17.5155L34.7746 18.2379L34.7722 21.5631C34.771 23.392 34.7234 25.0621 34.6665 25.2743L34.563 25.6604L29.3419 25.6152L24.1206 25.5702L24.0759 19.1352C24.0514 15.5961 24.0802 12.7002 24.14 12.7002C24.1999 12.7002 25.1021 13.1548 26.145 13.7104ZM20.7966 35.4556V42.0169L19.9016 41.4736C15.8073 38.9888 12.5986 34.8697 11.1979 30.3006L10.7668 28.8943H15.7817H20.7966V35.4556ZM34.0927 29.0468C34.0927 29.5226 33.262 31.7667 32.54 33.2419C31.5351 35.2947 29.9024 37.5178 28.3394 38.9617C27.2009 40.0134 24.5832 41.8495 24.2224 41.8495C24.0152 41.8495 23.9431 29.2137 24.1491 29.008C24.3234 28.8336 34.0927 28.8718 34.0927 29.0468Z" fill="white"/>
</svg>
