<svg width="31" height="38" viewBox="0 0 31 38" fill="none" xmlns="http://www.w3.org/2000/svg">
<path fill-rule="evenodd" clip-rule="evenodd" d="M18.2993 1.22122C15.7506 2.32724 14.0061 4.1077 13.0926 6.53559C12.6556 7.69682 12.5198 8.45574 12.5222 9.72442C12.5256 11.4867 12.9468 13.0002 13.862 14.5396C14.4373 15.5073 16.1468 17.1627 17.0628 17.6393L17.8129 18.0296L17.8454 26.2045L17.8779 34.3795L18.1732 34.9744C19.1413 36.925 21.5443 37.7584 23.5173 36.8278C24.4198 36.4022 25.0592 35.7537 25.5068 34.8102L25.8241 34.1415L25.8582 26.0489L25.8921 17.9563L26.5533 17.6141C27.3152 17.2199 28.692 16.0021 29.2976 15.1867C29.8805 14.4018 30.4192 13.3425 30.732 12.3661C30.9577 11.6611 30.9989 11.2591 31 9.74834C31.0011 8.10246 30.9742 7.88233 30.6554 6.921C29.8957 4.63031 28.3038 2.73359 26.2455 1.66636C25.5041 1.2819 24.2439 0.764767 24.0482 0.764648C23.9985 0.764529 23.9579 2.55832 23.9579 4.75072V8.73692H21.7908H19.6236V4.75072C19.6236 1.63768 19.5906 0.765958 19.4731 0.770836C19.3904 0.774287 18.8621 0.976928 18.2993 1.22122ZM3.6108 10.0458V18.6132H2.78596C1.4581 18.6132 0.660946 18.9869 0.236907 19.8083C0.00742994 20.2529 -0.00111953 20.5307 8.44458e-05 27.503L0.00128959 34.7364L0.282176 35.3314C0.596292 35.9967 1.32734 36.7091 2.01289 37.0181C2.38515 37.1859 2.847 37.2239 4.57398 37.229L6.68093 37.2352L7.32614 36.8821C7.68095 36.6878 8.15628 36.3153 8.38226 36.0544C9.14666 35.1718 9.14919 35.1439 9.14835 27.4861C9.14799 23.3187 9.10067 20.4091 9.02916 20.1548C8.88685 19.6483 8.29184 19.0507 7.67806 18.7977C7.41788 18.6904 6.87597 18.6132 6.38379 18.6132H5.53716V10.0458V1.47847H4.57398H3.6108V10.0458ZM17.8177 7.13054V10.6408H21.8492H25.8807L25.9126 7.10448L25.9445 3.56819L26.8248 4.38911C28.7376 6.17255 29.584 8.666 29.0882 11.0572C28.5986 13.4187 27.0984 15.3478 25.0162 16.2928L23.9676 16.7688L23.9628 25.2217L23.9579 33.6746L23.687 34.2045C22.8136 35.9134 20.232 35.6505 19.7617 33.8048C19.6644 33.4229 19.6236 30.8225 19.6236 25.0021V16.7417L19.0707 16.533C18.24 16.2194 16.8131 15.2294 16.2767 14.5945C14.9791 13.0583 14.4457 11.6432 14.448 9.74215C14.4505 7.61091 15.1056 6.04832 16.6266 4.54511C17.1412 4.03642 17.6197 3.62031 17.6899 3.62031C17.7771 3.62031 17.8177 4.73597 17.8177 7.13054ZM7.19358 27.4523C7.22813 35.0947 7.24848 34.8862 6.43604 35.2218C5.86885 35.456 3.27537 35.4544 2.70662 35.2195C2.47834 35.1253 2.18241 34.871 2.04876 34.6543C1.81255 34.2715 1.80568 34.0708 1.80532 27.5315C1.80496 22.3971 1.83963 20.7682 1.9516 20.6575C2.05996 20.5505 2.76236 20.5208 4.63044 20.5445L7.16252 20.5765L7.19358 27.4523Z" fill="white"/>
</svg>
