<svg width="36" height="36" viewBox="0 0 36 36" fill="none" xmlns="http://www.w3.org/2000/svg">
<path fill-rule="evenodd" clip-rule="evenodd" d="M0.254104 0.270467L0 0.541052V18.0164V35.4917L0.270468 35.7459L0.541052 36H18.0164H35.4917L35.7459 35.7295C35.9049 35.5602 36 35.3089 36 35.0578C36 34.6806 34.9657 33.6224 18.6716 17.3284C2.11348 0.770143 1.32475 0 0.925831 0C0.640519 0 0.427793 0.0856752 0.254104 0.270467ZM17.4449 34.2183C8.97522 34.2349 1.97977 34.2234 1.89935 34.1929C1.78352 34.1487 1.75325 30.9256 1.75325 18.6175V3.09775L17.2988 18.643L32.8445 34.1883L17.4449 34.2183ZM7.38713 17.302C7.24722 17.4323 7.10381 17.6558 7.06839 17.7987C7.03309 17.9416 7.0193 20.3844 7.03777 23.2274L7.07143 28.3963L7.33757 28.6624L7.60371 28.9286L12.7726 28.9622C15.6156 28.9807 18.0584 28.9669 18.2013 28.9316C18.5936 28.8345 18.9351 28.4019 18.9351 28.0022C18.9351 27.688 18.3072 27.0179 13.6447 22.3553C8.98212 17.6928 8.31203 17.0649 7.99784 17.0649C7.80136 17.0649 7.52727 17.1713 7.38713 17.302ZM12.3896 23.6688L15.8361 27.1169H12.3597H8.88312V23.6688C8.88312 21.7724 8.89656 20.2208 8.91304 20.2208C8.92952 20.2208 10.494 21.7724 12.3896 23.6688Z" fill="white"/>
</svg>
